<svg xmlns="http://www.w3.org/2000/svg" width="135" height="40"><path fill="#a6a6a6" d="M130.2 40H4.729A4.74 4.74 0 0 1 0 35.267V4.726A4.733 4.733 0 0 1 4.729 0H130.2a4.8 4.8 0 0 1 4.8 4.726v30.541A4.8 4.8 0 0 1 130.2 40z"/><path d="M134.032 35.268A3.83 3.83 0 0 1 130.2 39.1H4.729A3.835 3.835 0 0 1 .89 35.268V4.725A3.84 3.84 0 0 1 4.729.89H130.2a3.834 3.834 0 0 1 3.834 3.835z"/><path fill="#fff" d="M30.129 19.783a5.8 5.8 0 0 1 2.761-4.864 5.937 5.937 0 0 0-4.676-2.528c-1.967-.207-3.875 1.177-4.877 1.177-1.022 0-2.565-1.157-4.228-1.123a6.225 6.225 0 0 0-5.24 3.2c-2.266 3.923-.576 9.688 1.6 12.859 1.086 1.553 2.355 3.287 4.016 3.225 1.625-.066 2.232-1.035 4.193-1.035 1.943 0 2.513 1.035 4.207 1 1.744-.027 2.842-1.559 3.89-3.127a12.819 12.819 0 0 0 1.779-3.623 5.6 5.6 0 0 1-3.425-5.161zm-3.2-9.477a5.706 5.706 0 0 0 1.306-4.089 5.812 5.812 0 0 0-3.758 1.944 5.43 5.43 0 0 0-1.34 3.938 4.8 4.8 0 0 0 3.792-1.793zM53.681 31.5H51.41l-1.244-3.908h-4.324L44.657 31.5h-2.211l4.284-13.3h2.646zm-3.889-5.548-1.125-3.475q-.178-.532-.671-2.508h-.04q-.2.849-.632 2.508l-1.1 3.475zm14.906.632a5.451 5.451 0 0 1-1.323 3.869 3.865 3.865 0 0 1-2.942 1.264 2.941 2.941 0 0 1-2.725-1.361h-.04v5.055h-2.132V25.066q0-1.54-.079-3.16h1.875l.119 1.521h.04a3.792 3.792 0 0 1 6.071-.376 5.3 5.3 0 0 1 1.138 3.535zm-2.172.079a3.948 3.948 0 0 0-.632-2.31 2.18 2.18 0 0 0-1.856-.948 2.212 2.212 0 0 0-1.431.523 2.42 2.42 0 0 0-.839 1.372 2.791 2.791 0 0 0-.1.651v1.6a2.561 2.561 0 0 0 .642 1.767 2.128 2.128 0 0 0 1.668.721 2.18 2.18 0 0 0 1.875-.928 4.088 4.088 0 0 0 .673-2.446zm13.21-.079a5.447 5.447 0 0 1-1.324 3.869 3.861 3.861 0 0 1-2.941 1.264 2.941 2.941 0 0 1-2.725-1.361h-.039v5.055h-2.132V25.066q0-1.54-.079-3.16h1.875l.119 1.521h.04a3.794 3.794 0 0 1 6.073-.376 5.307 5.307 0 0 1 1.133 3.535zm-2.172.079a3.949 3.949 0 0 0-.633-2.31 2.177 2.177 0 0 0-1.855-.948 2.214 2.214 0 0 0-1.432.523 2.417 2.417 0 0 0-.839 1.372 2.846 2.846 0 0 0-.1.651v1.6a2.565 2.565 0 0 0 .641 1.767 2.132 2.132 0 0 0 1.67.721 2.18 2.18 0 0 0 1.875-.928 4.088 4.088 0 0 0 .673-2.446zm14.512 1.106a3.555 3.555 0 0 1-1.182 2.764 5.242 5.242 0 0 1-3.625 1.167 6.341 6.341 0 0 1-3.449-.828l.494-1.777a5.832 5.832 0 0 0 3.08.85 2.9 2.9 0 0 0 1.877-.545 1.776 1.776 0 0 0 .672-1.453 1.862 1.862 0 0 0-.553-1.365 5.159 5.159 0 0 0-1.836-1.028q-3.5-1.305-3.5-3.816a3.38 3.38 0 0 1 1.225-2.69A4.838 4.838 0 0 1 84.541 18a6.461 6.461 0 0 1 3.021.632l-.533 1.738a5.245 5.245 0 0 0-2.547-.612 2.587 2.587 0 0 0-1.758.553 1.579 1.579 0 0 0-.533 1.2 1.627 1.627 0 0 0 .613 1.3 6.917 6.917 0 0 0 1.934 1.027 6.534 6.534 0 0 1 2.527 1.619 3.37 3.37 0 0 1 .811 2.314zm7.047-4.265h-2.35v4.66q0 1.776 1.244 1.777a3.757 3.757 0 0 0 .949-.1l.059 1.619a4.822 4.822 0 0 1-1.658.236 2.549 2.549 0 0 1-1.975-.77 3.769 3.769 0 0 1-.711-2.586V23.5h-1.4v-1.6h1.4v-1.753l2.092-.632V21.9h2.35zm10.6 3.119a5.264 5.264 0 0 1-1.264 3.633 4.506 4.506 0 0 1-3.514 1.461 4.3 4.3 0 0 1-3.367-1.4 5.107 5.107 0 0 1-1.254-3.535 5.223 5.223 0 0 1 1.293-3.652 4.485 4.485 0 0 1 3.486-1.422 4.385 4.385 0 0 1 3.395 1.4 5.057 5.057 0 0 1 1.229 3.517zm-2.211.07a4.332 4.332 0 0 0-.572-2.277 2.107 2.107 0 0 0-1.916-1.148 2.14 2.14 0 0 0-1.955 1.148 4.414 4.414 0 0 0-.572 2.316 4.332 4.332 0 0 0 .572 2.277 2.181 2.181 0 0 0 3.852-.02 4.332 4.332 0 0 0 .595-2.289zm9.14-2.913a3.591 3.591 0 0 0-.67-.06 2.012 2.012 0 0 0-1.738.85 3.2 3.2 0 0 0-.533 1.9v5.03h-2.133l.02-6.574q0-1.658-.078-3.021h1.855l.08 1.836h.059a3.258 3.258 0 0 1 1.066-1.52 2.574 2.574 0 0 1 1.539-.514 3.423 3.423 0 0 1 .533.039zm9.537 2.468a4.987 4.987 0 0 1-.08.968h-6.4a2.791 2.791 0 0 0 .928 2.173 3.173 3.173 0 0 0 2.094.67 7.063 7.063 0 0 0 2.586-.453l.336 1.48a8.029 8.029 0 0 1-3.219.592 4.656 4.656 0 0 1-3.5-1.312 4.843 4.843 0 0 1-1.273-3.524 5.505 5.505 0 0 1 1.184-3.613 4.093 4.093 0 0 1 3.357-1.54 3.576 3.576 0 0 1 3.139 1.54 5.173 5.173 0 0 1 .852 3.021zm-2.029-.548a2.915 2.915 0 0 0-.416-1.639 1.859 1.859 0 0 0-1.7-.889 2.025 2.025 0 0 0-1.7.869 3.2 3.2 0 0 0-.633 1.658h4.443zM47.427 13.432h-3.715V6.894h1.048v5.655h2.667zm4.938 0h-.941l-.077-.543h-.029a1.616 1.616 0 0 1-1.377.65 1.422 1.422 0 0 1-1.077-.427 1.338 1.338 0 0 1-.368-.96 1.465 1.465 0 0 1 .723-1.319 3.746 3.746 0 0 1 2.032-.446V10.3q0-.931-.978-.931a2.192 2.192 0 0 0-1.229.349l-.214-.69a3.023 3.023 0 0 1 1.617-.407q1.849 0 1.85 1.95v1.736a7.25 7.25 0 0 0 .068 1.125zm-1.087-1.62v-.727q-1.735-.03-1.735.95a.71.71 0 0 0 .2.553.731.731 0 0 0 .511.184 1.061 1.061 0 0 0 .642-.218.889.889 0 0 0 .364-.554.824.824 0 0 0 .018-.188zm7.042 1.62h-.931l-.049-.757h-.029a1.565 1.565 0 0 1-1.513.864 1.773 1.773 0 0 1-1.416-.669 2.606 2.606 0 0 1-.562-1.736 2.738 2.738 0 0 1 .61-1.853 1.88 1.88 0 0 1 1.455-.66 1.413 1.413 0 0 1 1.329.64h.02V6.554h1.048v5.607q0 .688.038 1.271zm-1.086-1.989v-.786a1.542 1.542 0 0 0-.029-.33 1.189 1.189 0 0 0-.38-.635 1.028 1.028 0 0 0-.7-.257 1.075 1.075 0 0 0-.925.465 1.99 1.99 0 0 0-.336 1.193 1.862 1.862 0 0 0 .322 1.135 1.077 1.077 0 0 0 .915.465 1.008 1.008 0 0 0 .828-.388 1.3 1.3 0 0 0 .305-.862zm6.791-.591a2.531 2.531 0 0 1-.039.475h-3.143a1.371 1.371 0 0 0 .455 1.067 1.558 1.558 0 0 0 1.028.33A3.464 3.464 0 0 0 63.6 12.5l.164.728a3.942 3.942 0 0 1-1.581.291 2.289 2.289 0 0 1-1.722-.645 2.38 2.38 0 0 1-.625-1.731 2.7 2.7 0 0 1 .582-1.775 2.007 2.007 0 0 1 1.648-.756 1.755 1.755 0 0 1 1.542.756 2.522 2.522 0 0 1 .417 1.484zm-1-.272a1.427 1.427 0 0 0-.2-.8.915.915 0 0 0-.834-.437 1 1 0 0 0-.835.427 1.577 1.577 0 0 0-.31.815zm6.616 2.852h-1.048v-2.7q0-1.248-.95-1.248a.946.946 0 0 0-.757.343 1.217 1.217 0 0 0-.291.808v2.8h-1.048v-3.37q0-.621-.038-1.349h.921l.049.737h.029a1.514 1.514 0 0 1 .543-.569A1.771 1.771 0 0 1 68 8.619a1.5 1.5 0 0 1 1.1.427 2.079 2.079 0 0 1 .543 1.562zm5.838-6.121a.6.6 0 0 1-.184.456.66.66 0 0 1-.475.175.6.6 0 0 1-.441-.179.607.607 0 0 1-.18-.451.586.586 0 0 1 .184-.446.68.68 0 0 1 .912 0 .586.586 0 0 1 .184.445zm-.116 6.121h-1.049V8.717h1.049zm8.614 0H82.95V10.79c0-.871-.3-1.306-.893-1.306a.827.827 0 0 0-.684.324 1.182 1.182 0 0 0-.258.759v2.864h-1.027v-2.777a1.49 1.49 0 0 0-.219-.852.731.731 0 0 0-.645-.319.848.848 0 0 0-.7.348 1.25 1.25 0 0 0-.271.793v2.806h-1.028v-3.366q0-.621-.037-1.349h.9l.049.717h.029a1.573 1.573 0 0 1 1.434-.814 1.28 1.28 0 0 1 1.3.882h.02a1.838 1.838 0 0 1 .553-.591 1.633 1.633 0 0 1 .959-.291 1.37 1.37 0 0 1 1.039.427 2.237 2.237 0 0 1 .5 1.591v2.8z"/></svg>