<svg xmlns="http://www.w3.org/2000/svg" width="135" height="40"><defs><linearGradient id="a" x1="17.53" x2="16.239" y1="69.793" y2="69.122" gradientTransform="matrix(13 0 0 -25 -206.1 1753.5)" gradientUnits="userSpaceOnUse"><stop offset="0" stop-color="#00a0ff"/><stop offset=".007" stop-color="#00a1ff"/><stop offset=".26" stop-color="#00beff"/><stop offset=".512" stop-color="#00d2ff"/><stop offset=".76" stop-color="#00dfff"/><stop offset="1" stop-color="#00e3ff"/></linearGradient><linearGradient id="b" x1="17.304" x2="14.92" y1="67.088" y2="67.088" gradientTransform="matrix(10.15 0 0 -8.5 -141.8 590.3)" gradientUnits="userSpaceOnUse"><stop offset="0" stop-color="#ffe000"/><stop offset=".409" stop-color="#ffbd00"/><stop offset=".775" stop-color="orange"/><stop offset="1" stop-color="#ff9c00"/></linearGradient><linearGradient id="c" x1="17.785" x2="16.422" y1="68.572" y2="66.807" gradientTransform="matrix(16.7 0 0 -12.889 -272.2 906.086)" gradientUnits="userSpaceOnUse"><stop offset="0" stop-color="#ff3a44"/><stop offset="1" stop-color="#c31162"/></linearGradient><linearGradient id="d" x1="16.734" x2="17.342" y1="69.283" y2="68.49" gradientTransform="matrix(16.7 0 0 -12.829 -272.2 889.011)" gradientUnits="userSpaceOnUse"><stop offset="0" stop-color="#32a071"/><stop offset=".068" stop-color="#2da771"/><stop offset=".476" stop-color="#15cf74"/><stop offset=".801" stop-color="#06e775"/><stop offset="1" stop-color="#00f076"/></linearGradient></defs><path d="M130 40H5a4.951 4.951 0 0 1-5-5V5a4.951 4.951 0 0 1 5-5h125a4.951 4.951 0 0 1 5 5v30a5.015 5.015 0 0 1-5 5z"/><path fill="#a6a6a6" d="M130 .8a4.225 4.225 0 0 1 4.2 4.2v30a4.225 4.225 0 0 1-4.2 4.2H5A4.225 4.225 0 0 1 .8 35V5A4.225 4.225 0 0 1 5 .8zm0-.8H5a4.951 4.951 0 0 0-5 5v30a4.951 4.951 0 0 0 5 5h125a4.951 4.951 0 0 0 5-5V5a5.015 5.015 0 0 0-5-5z"/><path fill="#fff" d="M68.1 21.8a4.207 4.207 0 0 0-4.3 4.3 4.268 4.268 0 0 0 4.3 4.3 4.207 4.207 0 0 0 4.3-4.3 4.149 4.149 0 0 0-4.3-4.3zm0 6.8a2.608 2.608 0 0 1 0-5.2 2.422 2.422 0 0 1 2.4 2.6 2.482 2.482 0 0 1-2.4 2.6zm-9.3-6.8a4.207 4.207 0 0 0-4.3 4.3 4.268 4.268 0 0 0 4.3 4.3 4.207 4.207 0 0 0 4.3-4.3 4.149 4.149 0 0 0-4.3-4.3zm0 6.8a2.608 2.608 0 0 1 0-5.2 2.422 2.422 0 0 1 2.4 2.6 2.482 2.482 0 0 1-2.4 2.6zm-11.1-5.5v1.8H52a3.781 3.781 0 0 1-1 2.3 4.426 4.426 0 0 1-3.3 1.3 4.656 4.656 0 0 1-4.7-4.8 4.717 4.717 0 0 1 4.7-4.8 4.958 4.958 0 0 1 3.3 1.3l1.3-1.3a6.408 6.408 0 0 0-4.5-1.8 6.746 6.746 0 0 0-6.7 6.6 6.746 6.746 0 0 0 6.7 6.6 5.755 5.755 0 0 0 4.6-1.9 6.02 6.02 0 0 0 1.6-4.2 3.75 3.75 0 0 0-.1-1.1zm45.4 1.4a3.885 3.885 0 0 0-3.6-2.7 4.028 4.028 0 0 0-4 4.3 4.185 4.185 0 0 0 4.2 4.3 4.1 4.1 0 0 0 3.5-1.9l-1.4-1a2.437 2.437 0 0 1-2.1 1.2 2.17 2.17 0 0 1-2.1-1.3l5.7-2.4zm-5.8 1.4a2.429 2.429 0 0 1 2.2-2.5 1.769 1.769 0 0 1 1.6.9zM82.6 30h1.9V17.5h-1.9zm-3-7.3a3.293 3.293 0 0 0-2.3-1 4.3 4.3 0 0 0-4.1 4.3 4.141 4.141 0 0 0 4.1 4.2 2.871 2.871 0 0 0 2.2-1h.1v.6a2.273 2.273 0 0 1-4.4 1l-1.6.7a4.125 4.125 0 0 0 3.8 2.5c2.2 0 4-1.3 4-4.4V22h-1.8zm-2.2 5.9a2.608 2.608 0 0 1 0-5.2 2.406 2.406 0 0 1 2.3 2.6 2.406 2.406 0 0 1-2.3 2.6zm24.4-11.1h-4.5V30h1.9v-4.7h2.6a3.9 3.9 0 1 0 0-7.8zm.1 6h-2.7v-4.3h2.7a2.2 2.2 0 0 1 2.2 2.1 2.289 2.289 0 0 1-2.2 2.2zm11.5-1.8a3.361 3.361 0 0 0-3.3 1.9l1.7.7a1.766 1.766 0 0 1 1.7-.9 1.879 1.879 0 0 1 2 1.6v.1a3.967 3.967 0 0 0-1.9-.5c-1.8 0-3.6 1-3.6 2.8a2.93 2.93 0 0 0 3.1 2.8 2.814 2.814 0 0 0 2.4-1.2h.1v1h1.8v-4.8a3.785 3.785 0 0 0-4-3.5zm-.2 6.9c-.6 0-1.5-.3-1.5-1.1 0-1 1.1-1.3 2-1.3a3.867 3.867 0 0 1 1.7.4 2.329 2.329 0 0 1-2.2 2zm10.5-6.6-2.1 5.4h-.1l-2.2-5.4h-2l3.3 7.6-1.9 4.2h1.9l5.1-11.8zm-16.8 8h1.9V17.5h-1.9z"/><path fill="url(#a)" d="M10.4 7.5a1.978 1.978 0 0 0-.5 1.4V31a1.978 1.978 0 0 0 .5 1.4l.1.1 12.4-12.4v-.2z"/><path fill="url(#b)" d="m27 24.3-4.1-4.1v-.3l4.1-4.1.1.1 4.9 2.8c1.4.8 1.4 2.1 0 2.9z"/><path fill="url(#c)" d="M27.1 24.2 22.9 20 10.4 32.5c.5.5 1.2.5 2.1.1l14.6-8.4"/><path fill="url(#d)" d="M27.1 15.8 12.5 7.5a1.621 1.621 0 0 0-2.1.1L22.9 20z"/><path d="m27 24.1-14.5 8.2a1.635 1.635 0 0 1-2 0l-.1.1.1.1a1.635 1.635 0 0 0 2 0z" opacity=".2" style="isolation:isolate"/><path d="M10.4 32.3a1.955 1.955 0 0 1-.4-1.4v.1a1.978 1.978 0 0 0 .5 1.4v-.1zm21.6-11-5 2.8.1.1 4.9-2.8a1.662 1.662 0 0 0 1-1.4c0 .5-.4.9-1 1.3z" opacity=".12" style="isolation:isolate"/><path fill="#fff" d="M12.5 7.6 32 18.7c.6.4 1 .8 1 1.3a1.662 1.662 0 0 0-1-1.4L12.5 7.5C11.1 6.7 10 7.4 10 9v.1c0-1.6 1.1-2.3 2.5-1.5z" opacity=".25" style="isolation:isolate"/><path fill="#fff" stroke="#fff" stroke-width=".2" d="M43 13.1a1.5 1.5 0 0 1-1.1-.4 2.552 2.552 0 0 1-.7-1l.7-.3c.2.6.5.9 1.1.9a.984.984 0 0 0 .8-.3 1.222 1.222 0 0 0 .3-.9V7h.8v4.1a2.07 2.07 0 0 1-.5 1.5 1.741 1.741 0 0 1-1.4.5zm6.7-5.4H47v1.9h2.5v.7H47v1.9h2.7v.8h-3.5V7h3.5zM53 13h-.8V7.7h-1.7V7h4.1v.7H53zm2.3 0v-.8l3.2-4.5h-3.1V7h4v.8l-3.2 4.5h3.2v.7zm7.2 0h-.8V7.7H60V7h4.1v.7h-1.7V13zm4.7 0V7h2.2a1.707 1.707 0 0 1 1.7 1.7 2.353 2.353 0 0 1-.2.8 1.024 1.024 0 0 1-.6.5 1.794 1.794 0 0 1 .7.5 1.222 1.222 0 0 1 .3.9 1.656 1.656 0 0 1-.5 1.2 2.836 2.836 0 0 1-1.3.4zm.8-3.4h1.4a.908.908 0 0 0 .7-.3.864.864 0 0 0 .3-.6.864.864 0 0 0-.3-.6.908.908 0 0 0-.7-.3H68zm0 2.7h1.6a1.025 1.025 0 0 0 1-1 1.08 1.08 0 0 0-.3-.7.908.908 0 0 0-.7-.3H68zm7.9-4.6h-2.7v1.9h2.5v.7h-2.5v1.9h2.7v.8h-3.5V7h3.5zm1.2 5.3V7h.8v6z"/></svg>