<svg xmlns="http://www.w3.org/2000/svg" width="100" height="40"><path fill="#231f20" d="M37.869 34.509v-1.967a1.164 1.164 0 0 0-1.227-1.242 1.207 1.207 0 0 0-1.1.557 1.145 1.145 0 0 0-1.031-.557 1.03 1.03 0 0 0-.915.465v-.387h-.679v3.135h.683v-1.729a.734.734 0 0 1 .764-.833c.451 0 .679.3.679.827v1.744h.686v-1.738a.736.736 0 0 1 .764-.833c.464 0 .686.3.686.827v1.744zm10.146-3.135H46.9v-.95h-.686v.95h-.62V32h.633v1.44c0 .728.281 1.16 1.084 1.16a1.592 1.592 0 0 0 .849-.242l-.2-.584a1.247 1.247 0 0 1-.6.177c-.327 0-.451-.21-.451-.524V32h1.11zm5.792-.078a.92.92 0 0 0-.823.459v-.381h-.672v3.135h.679v-1.758c0-.518.222-.806.653-.806a1.106 1.106 0 0 1 .425.079l.209-.656a1.43 1.43 0 0 0-.484-.085zm-8.757.328a2.322 2.322 0 0 0-1.274-.328c-.79 0-1.306.38-1.306 1 0 .511.379.826 1.078.925l.326.045c.373.053.549.151.549.328 0 .243-.248.381-.712.381a1.662 1.662 0 0 1-1.038-.328l-.327.531a2.246 2.246 0 0 0 1.352.406c.9 0 1.424-.426 1.424-1.023s-.412-.839-1.091-.937l-.327-.046c-.293-.039-.528-.1-.528-.308s.222-.367.594-.367a2 2 0 0 1 .979.268zm18.191-.324a.919.919 0 0 0-.823.459v-.381h-.673v3.135h.679v-1.762c0-.518.223-.806.654-.806a1.1 1.1 0 0 1 .424.079l.209-.656a1.424 1.424 0 0 0-.483-.085zm-8.751 1.635a1.58 1.58 0 0 0 1.665 1.639 1.622 1.622 0 0 0 1.123-.374l-.326-.55a1.378 1.378 0 0 1-.816.282 1.007 1.007 0 0 1 0-2.007 1.371 1.371 0 0 1 .816.282l.326-.551a1.626 1.626 0 0 0-1.123-.373 1.58 1.58 0 0 0-1.665 1.639zm5.681-1.561v.381a1.184 1.184 0 0 0-.979-.459 1.639 1.639 0 0 0 0 3.278 1.181 1.181 0 0 0 .979-.459v.385h.68v-3.126zm-.9 2.564a.935.935 0 0 1-.692-.293.946.946 0 1 1 .692.293zm-7.65-1a1.488 1.488 0 0 0-1.483-1.64l-.01-.006a1.639 1.639 0 0 0 .046 3.278 1.889 1.889 0 0 0 1.3-.426l-.326-.505a1.481 1.481 0 0 1-.908.328.867.867 0 0 1-.94-.767h2.32zm-2.335-.276a.8.8 0 0 1 .829-.76h.013a.767.767 0 0 1 .552.216.776.776 0 0 1 .239.544zm18.991 1.387a.31.31 0 0 1 .124.023.307.307 0 0 1 .1.065.339.339 0 0 1 .069.1.308.308 0 0 1 0 .242.327.327 0 0 1-.069.1.307.307 0 0 1-.1.065.3.3 0 0 1-.124.027.326.326 0 0 1-.294-.191.308.308 0 0 1 0-.242.339.339 0 0 1 .069-.1.307.307 0 0 1 .1-.065.321.321 0 0 1 .134-.023zm0 .554a.238.238 0 0 0 .095-.02.241.241 0 0 0 .075-.052.245.245 0 0 0 0-.328.238.238 0 0 0-.17-.072.238.238 0 0 0-.095.02.227.227 0 0 0-.078.052.233.233 0 0 0 .078.38.237.237 0 0 0 .105.02zm.02-.39a.127.127 0 0 1 .084.026.091.091 0 0 1 .007.128.11.11 0 0 1-.069.029l.095.109h-.075l-.089-.105h-.03v.109h-.062v-.289zm-.072.056v.078h.075a.065.065 0 0 0 .039 0 .037.037 0 0 0 0-.029.039.039 0 0 0 0-.03.065.065 0 0 0-.039 0zm-1.735-4.153v1.639a1.185 1.185 0 0 0-.98-.459 1.639 1.639 0 0 0 0 3.278 1.183 1.183 0 0 0 .98-.459v.385h.653v-4.38zm-.911 3.829a.94.94 0 0 1-.947-1 .943.943 0 1 1 .947 1zM41.02 31.374v.381a1.184 1.184 0 0 0-.979-.459 1.639 1.639 0 0 0 0 3.278 1.181 1.181 0 0 0 .979-.459v.385h.68v-3.126zm-.9 2.571a.939.939 0 0 1-.953-1h.006a.944.944 0 1 1 .947 1z"/><path fill="#ff5f00" d="M44.824 7.491H55.11V26.05H44.824z"/><path fill="#eb001b" d="M45.478 16.772a11.8 11.8 0 0 1 4.489-9.281 11.781 11.781 0 1 0 0 18.559 11.8 11.8 0 0 1-4.489-9.278z"/><path fill="#f79e1b" d="M68.988 16.772a11.751 11.751 0 0 1-19.021 9.278 11.831 11.831 0 0 0 0-18.559 11.752 11.752 0 0 1 19.021 9.278z"/></svg>