<svg xmlns="http://www.w3.org/2000/svg" width="100" height="40"><path fill="#003087" d="M24.755 10.538C23.808 9.461 22.1 9 19.907 9h-6.355a.909.909 0 0 0-.9.765L10.007 26.5a.545.545 0 0 0 .539.629h3.923l.986-6.232-.031.2a.906.906 0 0 1 .895-.766h1.865c3.662 0 6.53-1.483 7.368-5.774.025-.127.046-.251.065-.371a4.044 4.044 0 0 0-.862-3.643m0 0C23.808 9.461 22.1 9 19.907 9h-6.355a.909.909 0 0 0-.9.765L10.007 26.5a.545.545 0 0 0 .539.629h3.923l.986-6.232-.031.2a.906.906 0 0 1 .895-.766h1.865c3.662 0 6.53-1.483 7.368-5.774.025-.127.046-.251.065-.371a4.044 4.044 0 0 0-.862-3.643"/><path fill="#002f86" d="M65.289 18.451h-2.111a.608.608 0 0 0-.5.266L59.761 23l-1.235-4.111a.609.609 0 0 0-.584-.433h-2.075a.364.364 0 0 0-.346.482l2.324 6.805-2.186 3.077a.364.364 0 0 0 .3.575h2.11a.612.612 0 0 0 .5-.261l7.021-10.111a.365.365 0 0 0-.3-.572m-14.117 4.077a2.34 2.34 0 0 1-2.371 2 1.624 1.624 0 0 1-1.74-2.036 2.348 2.348 0 0 1 2.354-2.016 1.768 1.768 0 0 1 1.4.571 1.8 1.8 0 0 1 .357 1.481M54.1 18.45H52a.367.367 0 0 0-.362.308l-.092.586-.146-.212a3 3 0 0 0-2.483-.879 4.826 4.826 0 0 0-4.689 4.214 3.944 3.944 0 0 0 .783 3.218 3.289 3.289 0 0 0 2.645 1.065 4.029 4.029 0 0 0 2.909-1.2l-.094.582a.365.365 0 0 0 .361.422h1.892a.609.609 0 0 0 .6-.513l1.136-7.171a.366.366 0 0 0-.362-.422m-12.604.052c-.24 1.57-1.443 1.57-2.606 1.57h-.662l.464-2.932a.365.365 0 0 1 .361-.307h.3c.792 0 1.54 0 1.926.449a1.461 1.461 0 0 1 .213 1.22m-.506-4.1H36.6a.609.609 0 0 0-.6.513l-1.776 11.221a.365.365 0 0 0 .361.422h2.095a.609.609 0 0 0 .6-.513l.479-3.027a.609.609 0 0 1 .6-.513h1.388c2.89 0 4.558-1.394 4.994-4.158a3.363 3.363 0 0 0-.56-2.823 4.076 4.076 0 0 0-3.2-1.118m-24.474-.2a.792.792 0 0 1 .442-.593.809.809 0 0 1 .343-.077h4.982a10.524 10.524 0 0 1 1.644.119 7.083 7.083 0 0 1 .819.18l.188.058a4.629 4.629 0 0 1 .689.291 4.043 4.043 0 0 0-.862-3.643C23.808 9.462 22.1 9 19.907 9h-6.356a.909.909 0 0 0-.9.766L10.007 26.5a.544.544 0 0 0 .538.629h3.924l.986-6.232z"/><path fill="#009cde" d="m87.868 14.712-1.8 11.423a.365.365 0 0 0 .361.421h1.811a.609.609 0 0 0 .6-.513l1.776-11.218a.365.365 0 0 0-.362-.421h-2.025a.364.364 0 0 0-.361.308m-5.4 7.816a2.34 2.34 0 0 1-2.371 2 1.624 1.624 0 0 1-1.74-2.036 2.348 2.348 0 0 1 2.354-2.016 1.772 1.772 0 0 1 1.4.571 1.8 1.8 0 0 1 .356 1.481m2.928-4.078h-2.1a.367.367 0 0 0-.362.308l-.092.586-.147-.212a3 3 0 0 0-2.481-.879 4.825 4.825 0 0 0-4.689 4.214 3.944 3.944 0 0 0 .782 3.218 3.291 3.291 0 0 0 2.645 1.065 4.029 4.029 0 0 0 2.909-1.2l-.094.582a.365.365 0 0 0 .361.422h1.892a.609.609 0 0 0 .6-.513l1.136-7.171a.366.366 0 0 0-.361-.422m-12.609.052c-.24 1.57-1.442 1.57-2.606 1.57h-.662l.465-2.932a.364.364 0 0 1 .361-.307h.3c.792 0 1.54 0 1.926.449a1.458 1.458 0 0 1 .213 1.22m-.506-4.1h-4.384a.609.609 0 0 0-.6.513l-1.777 11.221a.366.366 0 0 0 .361.422h2.251a.428.428 0 0 0 .422-.359l.5-3.181a.609.609 0 0 1 .6-.513h1.388c2.89 0 4.558-1.394 4.994-4.158a3.359 3.359 0 0 0-.56-2.823 4.075 4.075 0 0 0-3.2-1.118m-46.662-.223a9.7 9.7 0 0 1-.065.371c-.838 4.29-3.706 5.774-7.368 5.774h-1.857a.906.906 0 0 0-.895.766l-.955 6.036-.269 1.712a.478.478 0 0 0 .472.551h3.307a.8.8 0 0 0 .786-.67l.032-.168.623-3.939.04-.218a.8.8 0 0 1 .786-.669h.5c3.2 0 5.712-1.3 6.445-5.052a4.3 4.3 0 0 0-.661-3.8 3.165 3.165 0 0 0-.906-.7"/><path fill="#012069" d="M24.74 13.832c-.128-.037-.26-.071-.4-.1s-.276-.056-.419-.079a10.281 10.281 0 0 0-1.644-.12H17.3a.8.8 0 0 0-.785.67l-1.06 6.697-.031.2a.906.906 0 0 1 .895-.766h1.865c3.663 0 6.53-1.483 7.368-5.774a9.7 9.7 0 0 0 .065-.371 4.425 4.425 0 0 0-.689-.29 4.611 4.611 0 0 0-.188-.059"/></svg>