<svg xmlns="http://www.w3.org/2000/svg" xmlns:xlink="http://www.w3.org/1999/xlink" width="120" height="40"><defs><linearGradient id="c" x1="16.148%" x2="85.832%" y1="39.854%" y2="60.634%"><stop offset="0%" stop-color="#222357"/><stop offset="100%" stop-color="#254AA5"/></linearGradient><path id="a" d="M61.9 26.947c-.068-5.398 4.792-8.41 8.452-10.2 3.762-1.839 5.025-3.017 5.01-4.66-.028-2.515-3-3.625-5.781-3.668-4.853-.076-7.674 1.315-9.917 2.367l-1.748-8.212c2.25-1.041 6.418-1.95 10.739-1.99 10.142 0 16.778 5.028 16.814 12.822.04 9.891-13.627 10.439-13.534 14.86.032 1.34 1.306 2.771 4.099 3.135 1.381.184 5.196.324 9.521-1.675l1.698 7.945c-2.326.85-5.316 1.665-9.037 1.665-9.547 0-16.262-5.095-16.316-12.389m41.665 11.704c-1.852 0-3.413-1.084-4.11-2.75L84.967 1.17h10.135l2.017 5.596h12.385l1.17-5.596h8.933l-7.795 37.482h-8.247m1.417-10.125 2.925-14.075h-8.01l5.085 14.075M49.612 38.65l-7.99-37.48h9.658l7.986 37.482h-9.654m-14.288 0L25.27 13.14l-4.066 21.693c-.477 2.421-2.362 3.82-4.454 3.82H.317l-.23-1.09c3.374-.734 7.207-1.92 9.53-3.188 1.42-.775 1.826-1.452 2.292-3.294L19.611 1.17h10.207l15.648 37.48H35.324"/></defs><g fill="none" fill-rule="evenodd" transform="matrix(1 0 0 -1 .153 39.818)"><mask id="b" fill="#fff"><use xlink:href="#a"/></mask><g mask="url(#b)"><path fill="url(#c)" d="m0 73.269 117.763 43.543 26.79-73.04L26.792.23" transform="translate(-12.429 -38.561)"/></g></g></svg>